<svg width="100" height="100" viewBox="0 0 100 100" fill="none" xmlns="http://www.w3.org/2000/svg">
<mask id="mask0_1086_6" style="mask-type:alpha" maskUnits="userSpaceOnUse" x="0" y="0" width="100" height="100">
<circle cx="50" cy="50" r="50" fill="white"/>
</mask>
<g mask="url(#mask0_1086_6)">
<circle cx="50" cy="50.1406" r="50" fill="#95BFFF"/>
<path d="M9.17945 78.75C14.0928 67.8967 18.4928 59.28 22.3795 52.9C28.6861 42.4133 35.2495 33.1367 42.0695 25.07C37.0095 24.19 32.4628 23.75 28.4295 23.75L33.1595 10.66C46.9461 11.1 58.9361 12.8967 69.1295 16.05C72.9428 17.2233 76.7928 18.6533 80.6795 20.34L89.2595 39.59C84.1995 46.7767 77.7095 53.01 69.7895 58.29C61.9428 63.4967 53.4361 67.3467 44.2695 69.84L37.0095 59.5C31.2895 69.1067 26.1928 79.3733 21.7195 90.3L9.17945 78.75ZM38.6595 56.75C54.1328 51.3967 65.7561 44.0267 73.5295 34.64C66.5628 30.9733 57.2128 27.9667 45.4795 25.62L54.9395 33.43C49.0728 40.8367 43.6461 48.61 38.6595 56.75Z" fill="white"/>
</g>
</svg>
